<svg viewBox="0 0 43 61" fill="none" xmlns="http://www.w3.org/2000/svg">
    <path
        d="M7.05791 5.66676C5.21918 7.44475 3.757 9.57453 2.75838 11.9293C1.75976 14.2841 1.24512 16.8156 1.24512 19.3734C1.24512 21.9311 1.75976 24.4628 2.75838 26.8176C3.757 29.1723 5.21918 31.3021 7.05791 33.0801C7.98784 33.9794 9.2309 34.4822 10.5246 34.4822C11.8183 34.4822 13.0613 33.9794 13.9913 33.0801C14.4461 32.6411 14.8079 32.115 15.055 31.5331C15.3021 30.9513 15.4294 30.3256 15.4294 29.6935C15.4294 29.0613 15.3021 28.4356 15.055 27.8537C14.8079 27.2718 14.4461 26.7457 13.9913 26.3067C13.0623 25.4067 12.3236 24.3292 11.8191 23.1382C11.3147 21.9472 11.0547 20.6668 11.0547 19.3734C11.0547 18.0799 11.3147 16.7997 11.8191 15.6087C12.3236 14.4176 13.0623 13.3401 13.9913 12.4401C15.8975 10.6013 18.4427 9.57374 21.0912 9.57374C23.7398 9.57374 26.285 10.6013 28.1912 12.4401C29.1236 13.3382 29.8652 14.4151 30.3718 15.6064C30.8784 16.7977 31.1395 18.0789 31.1395 19.3734C31.1395 20.6679 30.8784 21.9492 30.3718 23.1405C29.8652 24.3318 29.1236 25.4087 28.1912 26.3067C27.7364 26.7457 27.3746 27.2718 27.1275 27.8537C26.8804 28.4356 26.7531 29.0613 26.7531 29.6935C26.7531 30.3256 26.8804 30.9513 27.1275 31.5331C27.3746 32.115 27.7364 32.6411 28.1912 33.0801C29.1163 33.9889 30.3612 34.4981 31.6579 34.4981C32.9547 34.4981 34.1996 33.9889 35.1246 33.0801C36.9663 31.3052 38.4312 29.1772 39.4318 26.8233C40.4323 24.4693 40.9481 21.9378 40.9481 19.3801C40.9481 16.8223 40.4323 14.2909 39.4318 11.9369C38.4312 9.58303 36.9663 7.45501 35.1246 5.68011C31.3678 2.0231 26.3274 -0.0160297 21.0846 9.49056e-05C16.0046 9.49056e-05 10.9246 1.89343 7.05791 5.66676Z"
        fill="url(#paint0_linear_220_54)" />
    <path
        d="M26.8579 27.6001L1.43123 52.4268C0.978421 52.8656 0.618424 53.3908 0.372559 53.9714C0.126693 54.5521 0 55.1762 0 55.8067C0 56.4373 0.126693 57.0614 0.372559 57.642C0.618424 58.2226 0.978421 58.748 1.43123 59.1868C2.35626 60.0955 3.60116 60.6047 4.8979 60.6047C6.19465 60.6047 7.43955 60.0955 8.36458 59.1868L33.7913 34.3601C34.2441 33.9213 34.6041 33.396 34.8499 32.8154C35.0958 32.2347 35.2225 31.6106 35.2225 30.9801C35.2225 30.3495 35.0958 29.7254 34.8499 29.1448C34.6041 28.5642 34.2441 28.0389 33.7913 27.6001C32.8662 26.6913 31.6213 26.1821 30.3246 26.1821C29.0278 26.1821 27.7829 26.6913 26.8579 27.6001Z"
        fill="url(#paint1_linear_220_54)" />
    <path
        d="M4.89795 51.0135C4.26123 51.0065 3.6294 51.1251 3.03862 51.3627C2.44784 51.6003 1.90972 51.9521 1.45515 52.398C1.00058 52.8439 0.638484 53.3751 0.389572 53.9612C0.14066 54.5473 0.00986224 55.1767 0.00463867 55.8135C0.011604 56.4491 0.143697 57.0771 0.393387 57.6616C0.643077 58.2462 1.00544 58.7759 1.45984 59.2204C1.91423 59.6649 2.45176 60.0154 3.04167 60.2522C3.63159 60.4889 4.26234 60.6072 4.89795 60.6002H37.9246C38.562 60.6072 39.1945 60.4886 39.786 60.2512C40.3775 60.0138 40.9165 59.6622 41.3722 59.2165C41.8278 58.7707 42.1912 58.2396 42.4415 57.6534C42.6919 57.0672 42.8243 56.4375 42.8313 55.8001C42.8137 54.5152 42.2873 53.2898 41.3675 52.3925C40.4476 51.4952 39.2095 50.9993 37.9246 51.0135H4.89795Z"
        fill="url(#paint2_linear_220_54)" />
    <defs>
        <linearGradient id="paint0_linear_220_54" x1="-3.65579" y1="51.3835" x2="33.1004"
            y2="37.987" gradientUnits="userSpaceOnUse">
            <stop stop-color="#F68712" />
            <stop offset="1" stop-color="#F03C1F" />
        </linearGradient>
        <linearGradient id="paint1_linear_220_54" x1="0.00558145" y1="30.3141" x2="42.849"
            y2="30.3141" gradientUnits="userSpaceOnUse">
            <stop stop-color="#EC008C" />
            <stop offset="1" stop-color="#F03C1F" />
        </linearGradient>
        <linearGradient id="paint2_linear_220_54" x1="9.11131" y1="55.8002" x2="32.3339"
            y2="55.8002" gradientUnits="userSpaceOnUse">
            <stop stop-color="#EC008C" />
            <stop offset="1" stop-color="#4B2A91" />
        </linearGradient>
    </defs>
</svg>
    
