<svg viewBox="0 0 366 61" fill="none" xmlns="http://www.w3.org/2000/svg">
    <path
        id="text"
        d="M20.0278 30.3334L18.5611 31.7867V33.3067L20.0278 34.7467H33.0278C32.5823 37.8067 31.0713 40.6114 28.7611 42.6668C27.4482 43.9322 25.8985 44.9263 24.2009 45.5921C22.5032 46.2579 20.6909 46.5823 18.8678 46.5467C14.8811 46.5467 11.5611 45.2134 8.73444 42.4667C7.37679 41.1975 6.30034 39.6578 5.57461 37.9468C4.84889 36.2358 4.49 34.3916 4.52111 32.5334C4.4933 30.6847 4.85261 28.8506 5.57594 27.1491C6.29927 25.4476 7.3706 23.9162 8.7211 22.6534C10.048 21.32 11.631 20.2687 13.3747 19.563C15.1184 18.8572 16.9869 18.5116 18.8678 18.5467C22.5611 18.5467 25.6811 19.7201 28.4544 22.1467L30.4944 22.0934L31.6011 21.0268L31.5478 18.9201C28.079 15.7849 23.5566 14.0711 18.8811 14.12C13.6811 14.12 9.18778 15.9467 5.54778 19.5334C3.77241 21.1973 2.3625 23.2122 1.40762 25.4502C0.452743 27.6882 -0.0262354 30.1003 0.00110809 32.5334C0.00110809 37.6 1.86777 42.0001 5.53443 45.5601C7.281 47.3094 9.36125 48.6901 11.6517 49.62C13.9421 50.55 16.396 51.0101 18.8678 50.9734C24.0544 50.9734 28.5344 49.1467 32.2011 45.5601C33.9754 43.8904 35.3835 41.8704 36.336 39.6279C37.2885 37.3855 37.7648 34.9695 37.7344 32.5334V31.7867L36.2411 30.3201L20.0278 30.3334ZM70.0544 35.04H57.0944V18.6934H70.0544C72.3878 18.6934 74.3211 19.4668 75.9744 21.0801C76.7657 21.8191 77.3929 22.7161 77.8155 23.7129C78.2381 24.7097 78.4467 25.7842 78.4278 26.8667C78.4278 29.1334 77.6278 31.0134 75.9744 32.6267C75.2051 33.4124 74.2829 34.032 73.2646 34.4471C72.2464 34.8622 71.1538 35.064 70.0544 35.04ZM70.0544 14.2668H54.0544L52.5744 15.7201V48.8267L54.0544 50.2934H55.6144L57.0944 48.8267V39.4534H68.6544L74.7078 49.5601L75.9878 50.2801H77.7878L79.0678 48.1068L73.6011 38.9734C75.9158 38.346 78.0024 37.069 79.6144 35.2934C81.7793 33.025 82.975 30.0022 82.9478 26.8667C82.9478 23.4 81.6678 20.4001 79.1611 17.9734C77.9709 16.7742 76.5508 15.8278 74.986 15.1908C73.4211 14.5539 71.7437 14.2396 70.0544 14.2668ZM116.948 46.5467C112.948 46.5467 109.641 45.2134 106.801 42.4667C105.446 41.1963 104.372 39.6561 103.649 37.9452C102.925 36.2342 102.568 34.3906 102.601 32.5334C102.573 30.6847 102.933 28.8506 103.656 27.1491C104.379 25.4476 105.451 23.9162 106.801 22.6534C108.128 21.32 109.711 20.2687 111.455 19.563C113.198 18.8572 115.067 18.5116 116.948 18.5467C120.921 18.5467 124.241 19.8801 127.081 22.6401C128.432 23.9054 129.503 25.4391 130.227 27.1428C130.95 28.8466 131.309 30.6827 131.281 32.5334C131.314 34.3874 130.958 36.2279 130.237 37.9363C129.516 39.6447 128.446 41.1833 127.094 42.4534C125.769 43.784 124.188 44.8327 122.446 45.5361C120.705 46.2396 118.839 46.5834 116.961 46.5467M116.961 14.1334C111.761 14.1334 107.268 15.9467 103.628 19.5334C101.849 21.1956 100.437 23.2099 99.4793 25.4481C98.522 27.6863 98.0413 30.0992 98.0678 32.5334C98.0678 37.6 99.9344 42.0001 103.614 45.5601C105.359 47.3119 107.439 48.6942 109.73 49.6243C112.021 50.5544 114.476 51.0132 116.948 50.9734C119.418 51.0114 121.87 50.5517 124.158 49.6217C126.447 48.6916 128.525 47.3103 130.268 45.5601C132.045 43.8916 133.455 41.8721 134.41 39.6296C135.365 37.3871 135.843 34.9705 135.814 32.5334C135.814 27.48 133.948 23.12 130.268 19.5334C128.523 17.7868 126.444 16.4088 124.156 15.4811C121.868 14.5535 119.417 14.0952 116.948 14.1334M201.108 14.2668L199.708 15.2267L189.468 42.9468L179.241 15.2267L177.841 14.2668H175.908L174.508 15.2267L164.281 42.9468L154.054 15.2267L152.654 14.2668H151.001L149.601 16.2134L161.828 49.3201L163.214 50.2801H165.348L166.734 49.3201L176.868 21.8534L187.014 49.3201L188.414 50.2801H190.548L191.934 49.3201L204.148 16.2134L202.761 14.2668H201.108ZM302.188 46.5467C298.188 46.5467 294.868 45.2134 292.041 42.4667C290.686 41.1963 289.612 39.6561 288.888 37.9452C288.165 36.2342 287.808 34.3906 287.841 32.5334C287.813 30.6847 288.173 28.8506 288.896 27.1491C289.619 25.4476 290.691 23.9162 292.041 22.6534C293.366 21.321 294.947 20.2703 296.688 19.5645C298.43 18.8588 300.296 18.5126 302.174 18.5467C306.161 18.5467 309.481 19.8801 312.308 22.6401C313.659 23.9054 314.73 25.4391 315.453 27.1428C316.177 28.8466 316.536 30.6827 316.508 32.5334C316.54 34.3874 316.185 36.2279 315.464 37.9363C314.743 39.6447 313.672 41.1833 312.321 42.4534C310.996 43.784 309.414 44.8327 307.673 45.5361C305.931 46.2396 304.066 46.5834 302.188 46.5467ZM302.188 14.1334C299.717 14.0919 297.262 14.5486 294.971 15.4764C292.681 16.4042 290.6 17.7839 288.854 19.5334C287.078 21.1968 285.668 23.2116 284.713 25.4497C283.758 27.6878 283.28 30.1002 283.308 32.5334C283.308 37.6 285.174 42.0001 288.854 45.5601C290.599 47.3119 292.679 48.6942 294.97 49.6243C297.261 50.5544 299.716 51.0132 302.188 50.9734C304.655 51.0096 307.105 50.549 309.391 49.619C311.677 48.689 313.753 47.3087 315.494 45.5601C317.271 43.8916 318.682 41.8721 319.637 39.6296C320.591 37.3871 321.07 34.9705 321.041 32.5334C321.041 27.48 319.174 23.12 315.508 19.5334C313.761 17.7852 311.68 16.4062 309.39 15.4785C307.099 14.5508 304.645 14.0934 302.174 14.1334M364.268 14.2668H362.708L361.214 15.7201V42.7334L341.414 14.8934L340.201 14.2668H337.401L335.934 15.7201V48.8267L337.401 50.2934H338.974L340.454 48.8267V21.2801L360.641 49.6534L361.841 50.2801H364.268L365.734 48.8267V15.7201L364.268 14.2668Z"
        fill="#f8fafc" />
    <style>
        #text { fill: #4F4C4D }

        @media (prefers-color-scheme: dark) {
        #text { fill: #f8fafc }
        }
    </style>
    <path
        d="M228.174 5.66676C226.336 7.44475 224.873 9.57453 223.875 11.9293C222.876 14.2841 222.362 16.8156 222.362 19.3734C222.362 21.9311 222.876 24.4628 223.875 26.8176C224.873 29.1723 226.336 31.3021 228.174 33.0801C229.104 33.9794 230.347 34.4822 231.641 34.4822C232.935 34.4822 234.178 33.9794 235.108 33.0801C235.563 32.6411 235.924 32.115 236.171 31.5331C236.419 30.9513 236.546 30.3256 236.546 29.6935C236.546 29.0613 236.419 28.4356 236.171 27.8537C235.924 27.2718 235.563 26.7457 235.108 26.3067C234.179 25.4067 233.44 24.3292 232.936 23.1382C232.431 21.9472 232.171 20.6668 232.171 19.3734C232.171 18.0799 232.431 16.7997 232.936 15.6087C233.44 14.4176 234.179 13.3401 235.108 12.4401C237.014 10.6013 239.559 9.57374 242.208 9.57374C244.856 9.57374 247.401 10.6013 249.308 12.4401C250.24 13.3382 250.982 14.4151 251.488 15.6064C251.995 16.7977 252.256 18.0789 252.256 19.3734C252.256 20.6679 251.995 21.9492 251.488 23.1405C250.982 24.3318 250.24 25.4087 249.308 26.3067C248.853 26.7457 248.491 27.2718 248.244 27.8537C247.997 28.4356 247.87 29.0613 247.87 29.6935C247.87 30.3256 247.997 30.9513 248.244 31.5331C248.491 32.115 248.853 32.6411 249.308 33.0801C250.233 33.9889 251.478 34.4981 252.774 34.4981C254.071 34.4981 255.316 33.9889 256.241 33.0801C258.083 31.3052 259.548 29.1772 260.548 26.8233C261.549 24.4693 262.065 21.9378 262.065 19.3801C262.065 16.8223 261.549 14.2909 260.548 11.9369C259.548 9.58303 258.083 7.45501 256.241 5.68011C252.484 2.0231 247.444 -0.0160297 242.201 9.49056e-05C237.121 9.49056e-05 232.041 1.89343 228.174 5.66676Z"
        fill="url(#paint0_linear_220_54)" />
    <path
        d="M247.974 27.6001L222.548 52.4268C222.095 52.8656 221.735 53.3908 221.489 53.9714C221.243 54.5521 221.116 55.1762 221.116 55.8067C221.116 56.4373 221.243 57.0614 221.489 57.642C221.735 58.2226 222.095 58.748 222.548 59.1868C223.473 60.0955 224.718 60.6047 226.014 60.6047C227.311 60.6047 228.556 60.0955 229.481 59.1868L254.908 34.3601C255.361 33.9213 255.721 33.396 255.966 32.8154C256.212 32.2347 256.339 31.6106 256.339 30.9801C256.339 30.3495 256.212 29.7254 255.966 29.1448C255.721 28.5642 255.361 28.0389 254.908 27.6001C253.983 26.6913 252.738 26.1821 251.441 26.1821C250.144 26.1821 248.899 26.6913 247.974 27.6001Z"
        fill="url(#paint1_linear_220_54)" />
    <path
        d="M226.014 51.0135C225.378 51.0065 224.746 51.1251 224.155 51.3627C223.564 51.6003 223.026 51.9521 222.572 52.398C222.117 52.8439 221.755 53.3751 221.506 53.9612C221.257 54.5473 221.126 55.1767 221.121 55.8135C221.128 56.4491 221.26 57.0771 221.51 57.6616C221.76 58.2462 222.122 58.7759 222.576 59.2204C223.031 59.6649 223.568 60.0154 224.158 60.2522C224.748 60.4889 225.379 60.6072 226.014 60.6002H259.041C259.678 60.6072 260.311 60.4886 260.902 60.2512C261.494 60.0138 262.033 59.6622 262.489 59.2165C262.944 58.7707 263.308 58.2396 263.558 57.6534C263.808 57.0672 263.941 56.4375 263.948 55.8001C263.93 54.5152 263.404 53.2898 262.484 52.3925C261.564 51.4952 260.326 50.9993 259.041 51.0135H226.014Z"
        fill="url(#paint2_linear_220_54)" />
    <defs>
        <linearGradient id="paint0_linear_220_54" x1="-31.2166" y1="51.3835" x2="2.05679"
            y2="-52.1698" gradientUnits="userSpaceOnUse">
            <stop stop-color="#F68712" />
            <stop offset="1" stop-color="#F03C1F" />
        </linearGradient>
        <linearGradient id="paint1_linear_220_54" x1="0.0476598" y1="30.3141" x2="365.886"
            y2="30.3141" gradientUnits="userSpaceOnUse">
            <stop stop-color="#EC008C" />
            <stop offset="1" stop-color="#F03C1F" />
        </linearGradient>
        <linearGradient id="paint2_linear_220_54" x1="230.228" y1="55.8002" x2="253.45" y2="55.8002"
            gradientUnits="userSpaceOnUse">
            <stop stop-color="#EC008C" />
            <stop offset="1" stop-color="#4B2A91" />
        </linearGradient>
    </defs>
</svg>
